<svg xmlns="http://www.w3.org/2000/svg" version="1.1" xmlns:xlink="http://www.w3.org/1999/xlink" xmlns:svgjs="http://svgjs.dev/svgjs" width="1000" height="999" viewBox="0 0 1000 999"><g transform="matrix(1,0,0,1,-0.215743440233382,-0.21552769679306039)"><svg viewBox="0 0 343 343" data-background-color="#ffffff" preserveAspectRatio="xMidYMid meet" height="999" width="1000" xmlns="http://www.w3.org/2000/svg" xmlns:xlink="http://www.w3.org/1999/xlink"><g id="tight-bounds" transform="matrix(1,0,0,1,0.0740000000000407,0.07400000000001228)"><svg viewBox="0 0 342.85155851775386 342.85155851775386" height="342.85155851775386" width="342.85155851775386"><g><svg></svg></g><g><svg viewBox="0 0 342.85155851775386 342.85155851775386" height="342.85155851775386" width="342.85155851775386"><g><path d="M0 171.426c0-94.676 76.75-171.426 171.426-171.426 94.676 0 171.426 76.75 171.426 171.426 0 94.676-76.75 171.426-171.426 171.426-94.676 0-171.426-76.75-171.426-171.426zM171.426 337.062c91.478 0 165.636-74.158 165.636-165.636 0-91.478-74.158-165.636-165.636-165.636-91.478 0-165.636 74.158-165.636 165.636 0 91.478 74.158 165.636 165.636 165.636z" data-fill-palette-color="tertiary" fill="#45be88" stroke="transparent"></path><ellipse rx="164.56874808852186" ry="164.56874808852186" cx="171.42577925887693" cy="171.42577925887693" fill="#45be88" stroke="transparent" stroke-width="0" fill-opacity="1" data-fill-palette-color="tertiary"></ellipse></g><g transform="matrix(1,0,0,1,64.84655864529837,139.32550954885252)"><svg viewBox="0 0 213.1584412271571 64.20053942004881" height="64.20053942004881" width="213.1584412271571"><g><svg viewBox="0 0 213.1584412271571 64.20053942004881" height="64.20053942004881" width="213.1584412271571"><g><svg viewBox="0 0 213.1584412271571 64.20053942004881" height="64.20053942004881" width="213.1584412271571"><g><svg viewBox="0 0 213.1584412271571 64.20053942004881" height="64.20053942004881" width="213.1584412271571"><g id="textblocktransform"><svg viewBox="0 0 213.1584412271571 64.20053942004881" height="64.20053942004881" width="213.1584412271571" id="textblock"><g><svg viewBox="0 0 213.1584412271571 64.20053942004881" height="64.20053942004881" width="213.1584412271571"><g transform="matrix(1,0,0,1,0,0)"><svg width="213.1584412271571" viewBox="3.76 -38.18 131.63 39.64" height="64.20053942004881" data-palette-color="#ffffff"><path d="M35.3-0.15L35.3-0.15 27.88 0.98Q27.1-1.51 26.32-3.98 25.54-6.45 24.8-8.94L24.8-8.94 12.79-8.5 11.28-2 3.76-2Q4.44-10.3 5.18-18.51 5.91-26.71 6.59-34.96L6.59-34.96Q10.11-35.55 13.6-35.94 17.09-36.33 20.65-36.33L20.65-36.33Q25-36.33 29.35-36.18L29.35-36.18Q30.13-31.1 30.88-26.05 31.64-21 32.47-15.92L32.47-15.92Q33.06-11.91 33.76-8.01 34.47-4.1 35.3-0.15ZM13.72-15.33L23.1-15.58Q23.05-16.02 22.85-17.21 22.66-18.41 22.41-19.75 22.17-21.09 21.85-22.19 21.53-23.29 21.24-23.49L21.24-23.49Q21.14-23.54 20.78-23.58 20.41-23.63 20-23.68 19.58-23.73 19.19-23.73 18.8-23.73 18.65-23.73L18.65-23.73Q18.41-23.73 17.99-23.73 17.58-23.73 17.11-23.71 16.65-23.68 16.24-23.58 15.82-23.49 15.67-23.34L15.67-23.34Q15.58-23.29 15.43-22.71 15.28-22.12 15.06-21.26 14.84-20.41 14.62-19.43 14.4-18.46 14.21-17.58 14.01-16.7 13.89-16.06 13.77-15.43 13.72-15.33L13.72-15.33ZM47.02-1.81L47.02-1.81Q47.02-1.56 47.02-1.17 47.02-0.78 46.97-0.39 46.92 0 46.82 0.37 46.73 0.73 46.58 0.88L46.58 0.88Q46.38 1.03 45.8 1.15 45.21 1.27 44.53 1.34 43.85 1.42 43.23 1.44 42.62 1.46 42.33 1.46L42.33 1.46Q42.04 1.46 41.62 1.44 41.21 1.42 40.77 1.37 40.33 1.32 39.96 1.2 39.6 1.07 39.45 0.88L39.45 0.88Q39.26 0.68 39.13 0.17 39.01-0.34 38.94-0.93 38.86-1.51 38.84-2.05 38.82-2.59 38.82-2.88L38.82-2.88Q38.82-3.47 38.91-4.39 39.01-5.32 39.45-5.71L39.45-5.71Q39.6-5.86 40.16-5.93 40.72-6.01 41.38-6.08 42.04-6.15 42.67-6.18 43.31-6.2 43.55-6.2L43.55-6.2Q44.09-6.2 45.09-6.13 46.09-6.05 46.48-5.71L46.48-5.71Q46.63-5.47 46.75-4.96 46.87-4.44 46.92-3.83 46.97-3.22 46.99-2.66 47.02-2.1 47.02-1.81ZM86.03-12.16L86.03-12.16Q86.03-10.4 85.49-8.47 84.96-6.54 83.93-4.86 82.91-3.17 81.42-1.93 79.93-0.68 78.07-0.29L78.07-0.29Q77.34-0.15 76.34-0.05 75.34 0.05 74.26 0.1 73.19 0.15 72.14 0.2 71.09 0.24 70.36 0.24L70.36 0.24Q66.16 0.44 61.96 0.46 57.76 0.49 53.51 0.49L53.51 0.49Q53.32-1.51 53.14-3.47 52.97-5.42 52.68-7.47L52.68-7.47Q56.05-7.62 59.39-7.79 62.74-7.96 66.11-8.2L66.11-8.2Q66.84-8.25 67.74-8.25 68.65-8.25 69.6-8.3 70.55-8.35 71.45-8.42 72.36-8.5 73.04-8.64L73.04-8.64Q73.33-8.69 73.75-8.81 74.16-8.94 74.51-9.16 74.85-9.38 75.09-9.67 75.34-9.96 75.34-10.4L75.34-10.4Q75.34-11.43 75.12-12.67 74.9-13.92 74.8-14.89L74.8-14.89Q71.14-14.55 67.45-14.23 63.76-13.92 60.05-13.92L60.05-13.92Q57.51-13.92 56-15.36 54.49-16.8 53.8-19.14L53.8-19.14Q53.66-19.68 53.54-20.43 53.41-21.19 53.34-22 53.27-22.8 53.22-23.58 53.17-24.37 53.12-24.9L53.12-24.9Q52.88-28.13 52.75-31.25 52.63-34.38 52.53-37.6L52.53-37.6Q54.88-37.35 57.25-37.16 59.61-36.96 61.96-36.82L61.96-36.82Q61.96-34.52 62.08-31.96 62.2-29.39 62.69-27.2L62.69-27.2Q62.93-26.03 63.62-25.17 64.3-24.32 65.25-23.75 66.21-23.19 67.3-22.92 68.4-22.66 69.53-22.66L69.53-22.66Q70.84-22.66 72.16-22.92 73.48-23.19 74.7-23.58L74.7-23.58Q74.51-27.25 74.38-30.81 74.26-34.38 73.92-37.99L73.92-37.99Q75.39-38.04 76.85-38.11 78.32-38.18 79.78-38.18L79.78-38.18Q82.08-38.18 84.42-37.74L84.42-37.74Q84.42-35.64 84.49-33.54 84.57-31.45 84.66-29.35L84.66-29.35Q84.76-28.37 84.83-27.37 84.91-26.37 84.96-25.39L84.96-25.39Q85.15-22.07 85.59-18.77 86.03-15.48 86.03-12.16ZM99.46-1.81L99.46-1.81Q99.46-1.56 99.46-1.17 99.46-0.78 99.41-0.39 99.36 0 99.26 0.37 99.16 0.73 99.02 0.88L99.02 0.88Q98.82 1.03 98.23 1.15 97.65 1.27 96.97 1.34 96.28 1.42 95.67 1.44 95.06 1.46 94.77 1.46L94.77 1.46Q94.47 1.46 94.06 1.44 93.64 1.42 93.21 1.37 92.77 1.32 92.4 1.2 92.03 1.07 91.89 0.88L91.89 0.88Q91.69 0.68 91.57 0.17 91.45-0.34 91.37-0.93 91.3-1.51 91.28-2.05 91.25-2.59 91.25-2.88L91.25-2.88Q91.25-3.47 91.35-4.39 91.45-5.32 91.89-5.71L91.89-5.71Q92.03-5.86 92.6-5.93 93.16-6.01 93.82-6.08 94.47-6.15 95.11-6.18 95.74-6.2 95.99-6.2L95.99-6.2Q96.53-6.2 97.53-6.13 98.53-6.05 98.92-5.71L98.92-5.71Q99.06-5.47 99.19-4.96 99.31-4.44 99.36-3.83 99.41-3.22 99.43-2.66 99.46-2.1 99.46-1.81ZM135.39-0.15L135.39-0.15 125.67 0.1Q125.58-3.08 125.53-6.2 125.48-9.33 125.38-12.5L125.38-12.5 116.2-12.06Q116.15-11.57 116.15-11.11 116.15-10.64 116.15-10.21L116.15-10.21Q116.15-7.47 116.37-4.76 116.59-2.05 116.84 0.63L116.84 0.63Q115.86 0.68 114.86 0.71 113.86 0.73 112.88 0.73L112.88 0.73Q110.98 0.73 109.05 0.66 107.12 0.59 105.21 0.59L105.21 0.59Q105.31-3.96 105.46-8.4 105.61-12.84 105.7-17.38L105.7-17.38Q105.8-21.83 105.82-26.17 105.85-30.52 105.9-34.91L105.9-34.91 114.05-34.91Q114.44-31.25 114.59-27.61 114.74-23.97 115.03-20.31L115.03-20.31Q117.37-20.36 119.67-20.36 121.96-20.36 124.36-20.41L124.36-20.41 124.84-36.23Q125.53-36.28 126.19-36.28 126.85-36.28 127.53-36.28L127.53-36.28Q129.48-36.28 131.36-36.18 133.24-36.08 135.15-35.74L135.15-35.74Q135.39-26.81 135.34-17.94 135.29-9.08 135.39-0.15Z" opacity="1" transform="matrix(1,0,0,1,0,0)" fill="#ffffff" class="undefined-text-0" data-fill-palette-color="quaternary" id="text-0"></path></svg></g></svg></g></svg></g></svg></g></svg></g></svg></g></svg></g></svg></g><defs></defs></svg><rect width="342.85155851775386" height="342.85155851775386" fill="none" stroke="none" visibility="hidden"></rect></g></svg></g></svg>