<svg xmlns="http://www.w3.org/2000/svg" version="1.1" xmlns:xlink="http://www.w3.org/1999/xlink" xmlns:svgjs="http://svgjs.dev/svgjs" width="1000" height="1000" viewBox="0 0 1000 1000"><rect width="1000" height="1000" fill="#ed1703"></rect><g transform="matrix(0.7,0,0,0.7,149.57575757575756,282.1265587044535)"><svg viewBox="0 0 396 247" data-background-color="#ed1703" preserveAspectRatio="xMidYMid meet" height="623" width="1000" xmlns="http://www.w3.org/2000/svg" xmlns:xlink="http://www.w3.org/1999/xlink"><g id="tight-bounds" transform="matrix(1,0,0,1,0.2400000000000091,-0.09999999999999432)"><svg viewBox="0 0 395.52 247.2" height="247.2" width="395.52"><g><svg></svg></g><g><svg viewBox="0 0 395.52 247.2" height="247.2" width="395.52"><g transform="matrix(1,0,0,1,75.54432000000001,87.59606191570882)"><svg viewBox="0 0 244.43135999999996 72.00787616858236" height="72.00787616858236" width="244.43135999999996"><g><svg viewBox="0 0 244.43135999999996 72.00787616858236" height="72.00787616858236" width="244.43135999999996"><g><svg viewBox="0 0 244.43135999999996 72.00787616858236" height="72.00787616858236" width="244.43135999999996"><g><svg viewBox="0 0 244.43135999999996 72.00787616858236" height="72.00787616858236" width="244.43135999999996"><g id="textblocktransform"><svg viewBox="0 0 244.43135999999996 72.00787616858236" height="72.00787616858236" width="244.43135999999996" id="textblock"><g><svg viewBox="0 0 244.43135999999996 72.00787616858236" height="72.00787616858236" width="244.43135999999996"><g transform="matrix(1,0,0,1,0,0)"><svg width="244.43135999999996" viewBox="2.1500000953674316 -34.25 117.43999481201172 34.599998474121094" height="72.00787616858236" data-palette-color="#f7e1e1"><path d="M17.9-26.1L17.9-26.1Q15.75-26.1 14.73-24.85 13.7-23.6 13.7-20.4L13.7-20.4 13.7-14.5 22-14.5 22-20.5Q22-22.6 21.5-23.88 21-25.15 20.13-25.63 19.25-26.1 17.9-26.1ZM22-4.95L22-7.6 13.7-7.6 13.7-4.95Q13.7-2.4 12.35-1.2 11 0 7.7 0L7.7 0Q6.3 0 5.4-0.4 4.5-0.8 3.83-1.75 3.15-2.7 2.83-4.53 2.5-6.35 2.33-8.93 2.15-11.5 2.15-15.45L2.15-15.45Q2.15-18.9 2.88-21.78 3.6-24.65 4.83-26.65 6.05-28.65 7.6-30.18 9.15-31.7 10.98-32.55 12.8-33.4 14.53-33.83 16.25-34.25 18-34.25L18-34.25Q20.1-34.25 22.15-33.68 24.2-33.1 26.3-31.7 28.4-30.3 29.98-28.23 31.55-26.15 32.55-22.85 33.55-19.55 33.55-15.45L33.55-15.45Q33.55-8.85 33.08-5.68 32.6-2.5 31.48-1.25 30.35 0 28 0L28 0Q24.7 0 23.35-1.2 22-2.4 22-4.95L22-4.95ZM37.1-3.45L37.1-3.45Q37.1-5.15 38.52-6.2 39.95-7.25 42.55-7.25L42.55-7.25Q48-7.25 48-3.45L48-3.45Q48-2 47.3-1.13 46.6-0.25 45.45 0.05 44.3 0.35 42.55 0.35L42.55 0.35Q40.2 0.35 38.65-0.55 37.1-1.45 37.1-3.45ZM65.25-15L65.25-7.5Q65.25-3.45 63.8-1.73 62.35 0 59.35 0L59.35 0Q56.45 0 55.1-1.58 53.75-3.15 53.7-7.15L53.7-7.15 53.65-15.25 45.95-24.25Q43.85-26.65 43.85-28.4L43.85-28.4Q43.85-31.15 45.95-32.75L45.95-32.75Q47.95-34.25 49.5-34.25L49.5-34.25Q51.65-34.25 53.35-32.3L53.35-32.3 59.45-25.2 64.55-31.15Q67.09-34.2 70-34.2L70-34.2Q72.15-34.2 73.34-33L73.34-33Q75.4-30.95 75.4-29.05L75.4-29.05Q75.4-28 74.7-26.83 74-25.65 72.45-23.8L72.45-23.8 65.25-15ZM70.79-3.45L70.79-3.45Q70.79-5.15 72.22-6.2 73.64-7.25 76.24-7.25L76.24-7.25Q81.69-7.25 81.69-3.45L81.69-3.45Q81.69-2 80.99-1.13 80.29-0.25 79.14 0.05 77.99 0.35 76.24 0.35L76.24 0.35Q73.89 0.35 72.34-0.55 70.79-1.45 70.79-3.45ZM119.59-28.7L119.59-7.5Q119.59-3.45 118.14-1.73 116.69 0 113.74 0L113.74 0Q110.84 0 109.49-1.58 108.14-3.15 108.14-7.15L108.14-7.15 108.09-12.8 97.89-12.8 97.89-7.5Q97.89-3.4 96.49-1.7 95.09 0 92.04 0L92.04 0Q89.14 0 87.79-1.58 86.44-3.15 86.44-7.15L86.44-7.15 86.29-28.25Q86.29-31.35 87.87-32.8 89.44-34.25 92.04-34.25L92.04-34.25Q95.04-34.25 96.47-33.15 97.89-32.05 97.89-28.7L97.89-28.7 97.89-20.3 108.04-20.3 108.04-28.25Q108.04-30.35 108.82-31.73 109.59-33.1 110.82-33.68 112.04-34.25 113.74-34.25L113.74-34.25Q116.64-34.25 118.12-33.15 119.59-32.05 119.59-28.7L119.59-28.7Z" opacity="1" transform="matrix(1,0,0,1,0,0)" fill="#f7e1e1" class="undefined-text-0" data-fill-palette-color="primary" id="text-0"></path></svg></g></svg></g></svg></g></svg></g></svg></g></svg></g></svg></g><g><path d="M0 123.6c0-68.262 55.338-123.6 123.6-123.6 52.574 0 97.481 32.824 115.346 79.096l-3.489 0c-17.696-44.44-61.109-75.85-111.857-75.849-66.469 0-120.353 53.884-120.353 120.353 0 66.469 53.884 120.353 120.353 120.353 50.749 0 94.161-31.41 111.857-75.849l3.489 0c-17.865 46.272-62.772 79.096-115.346 79.096-68.262 0-123.6-55.338-123.6-123.6z" fill="#f7e1e1" stroke="transparent" data-fill-palette-color="tertiary"></path></g></svg></g><defs></defs></svg><rect width="395.52" height="247.2" fill="none" stroke="none" visibility="hidden"></rect></g></svg></g></svg>